<?xml version="1.0" standalone="no"?><svg xmlns="http://www.w3.org/2000/svg" viewBox="0 0 1440 320"><path fill="#5000ca" fill-opacity="1" d="M0,288L20,282.7C40,277,80,267,120,256C160,245,200,235,240,197.3C280,160,320,96,360,90.7C400,85,440,139,480,170.7C520,203,560,213,600,208C640,203,680,181,720,192C760,203,800,245,840,261.3C880,277,920,267,960,240C1000,213,1040,171,1080,170.7C1120,171,1160,213,1200,229.3C1240,245,1280,235,1320,208C1360,181,1400,139,1420,117.3L1440,96L1440,320L1420,320C1400,320,1360,320,1320,320C1280,320,1240,320,1200,320C1160,320,1120,320,1080,320C1040,320,1000,320,960,320C920,320,880,320,840,320C800,320,760,320,720,320C680,320,640,320,600,320C560,320,520,320,480,320C440,320,400,320,360,320C320,320,280,320,240,320C200,320,160,320,120,320C80,320,40,320,20,320L0,320Z"></path></svg>